<svg version="1.1" xmlns="http://www.w3.org/2000/svg" xmlns:xlink="http://www.w3.org/1999/xlink" x="0px" y="0px" width="120px" height="200px" viewBox="0 0 120 200">
	<g data-bx-workspace="master" xmlns="http://www.w3.org/2000/svg" xmlns:bx="https://boxy-svg.com" viewBox="0 0 110 150" width="0px" height="0px">
		<path d="M 93.916 16.284 C 83.635 5.876 70.661 0 55 0 C 39.339 0 26.365 5.876 16.084 16.284 C 5.804 26.692 0 39.827 0 55.682 C 0 94.734 39.813 134.555 54.278 149.267 L 55 150 L 55.722 149.267 C 70.187 134.555 110 94.734 110 55.682 C 110 39.827 104.196 26.692 93.916 16.284 Z M 55 8.249 C 67.569 8.249 79.984 14.102 88.211 22.217 C 96.199 30.576 101.852 43.075 101.852 55.682 C 101.852 68.387 96.305 81.031 88.17 89.265 C 80.035 97.5 67.546 103.114 55 103.114 C 42.545 103.114 30.137 97.33 21.882 89.241 C 13.864 80.913 8.148 68.409 8.148 55.682 C 8.148 43.066 13.88 30.491 21.927 22.157 C 30.158 14.012 42.538 8.249 55 8.249 Z" style="fill: rgb(0,215,0);"></path>
		<ellipse style="stroke: rgb(0, 0, 0); fill: rgb(255, 255, 255); paint-order: fill; stroke-width: 0px;" cx="54.294" cy="55.376" rx="47.588" ry="48.886"></ellipse>
		<g data-bx-workspace="master" xmlns="http://www.w3.org/2000/svg" xmlns:bx="https://boxy-svg.com" viewBox="0 0 110 150" width="0px" height="0px">
			<defs></defs>
			<path d="M 93.916 16.284 C 83.635 5.876 70.661 0 55 0 C 39.339 0 26.365 5.876 16.084 16.284 C 5.804 26.692 0 39.827 0 55.682 C 0 94.734 39.813 134.555 54.278 149.267 L 55 150 L 55.722 149.267 C 70.187 134.555 110 94.734 110 55.682 C 110 39.827 104.196 26.692 93.916 16.284 Z M 55 8.249 C 67.569 8.249 79.984 14.102 88.211 22.217 C 96.199 30.576 101.852 43.075 101.852 55.682 C 101.852 68.387 96.305 81.031 88.17 89.265 C 80.035 97.5 67.546 103.114 55 103.114 C 42.545 103.114 30.137 97.33 21.882 89.241 C 13.864 80.913 8.148 68.409 8.148 55.682 C 8.148 43.066 13.88 30.491 21.927 22.157 C 30.158 14.012 42.538 8.249 55 8.249 Z" style="fill: rgb(0,215,0);" data-bx-origin="0 0"></path>
			<ellipse style="stroke: rgb(0, 0, 0); fill: rgb(255, 255, 255); paint-order: fill; stroke-width: 0px;" cx="54.294" cy="55.376" rx="47.588" ry="48.886"></ellipse>
			<g transform="matrix(0.818733, 0, 0, 0.818733, -193.802536, -145.771301)" data-bx-origin="-0.500002 -0.387288">
				<polygon style="fill: rgb(0,215,0);" points="334.442 286.871 334.442 272.809 273.372 252.41 273.372 266.481"></polygon>
				<path style="fill: rgb(0,215,0);" d="M 287.458 252.426 C 285.356 250.059 271.396 233.918 285.481 219.957 C 297.223 208.309 298.934 198.527 294.981 193.785 C 294.981 193.785 324.864 206.066 307.286 234.551 C 304.278 239.387 296.763 245.098 300.692 256.871 L 287.458 252.426 Z"></path>
				<path style="fill: rgb(0,215,0);" d="M 305.809 256.293 C 305.168 253.902 302.301 248.699 311.043 238.348 C 315.715 232.832 317.473 224.653 317.895 221.575 C 317.895 221.575 333.372 230.45 317.973 252.161 L 305.809 256.293 Z"></path>
				<polygon style="fill: rgb(0,215,0);" points="309.098 259.621 334.442 251.16 334.442 265.223 330.145 266.637"></polygon>
				<polygon style="fill: rgb(0,215,0);" points="298.723 279.668 273.372 288.113 273.372 274.051 277.684 272.645"></polygon>
			</g>
		</g>
	</g>
</svg>