<svg version="1.1" xmlns="http://www.w3.org/2000/svg" xmlns:xlink="http://www.w3.org/1999/xlink" x="0px" y="0px" width="120px" height="200px" viewBox="0 0 120 200">
	<g data-bx-workspace="master" xmlns="http://www.w3.org/2000/svg" xmlns:bx="https://boxy-svg.com" viewBox="0 0 110 150" width="0px" height="0px">
		<path d="M 93.916 16.284 C 83.635 5.876 70.661 0 55 0 C 39.339 0 26.365 5.876 16.084 16.284 C 5.804 26.692 0 39.827 0 55.682 C 0 94.734 39.813 134.555 54.278 149.267 L 55 150 L 55.722 149.267 C 70.187 134.555 110 94.734 110 55.682 C 110 39.827 104.196 26.692 93.916 16.284 Z M 55 8.249 C 67.569 8.249 79.984 14.102 88.211 22.217 C 96.199 30.576 101.852 43.075 101.852 55.682 C 101.852 68.387 96.305 81.031 88.17 89.265 C 80.035 97.5 67.546 103.114 55 103.114 C 42.545 103.114 30.137 97.33 21.882 89.241 C 13.864 80.913 8.148 68.409 8.148 55.682 C 8.148 43.066 13.88 30.491 21.927 22.157 C 30.158 14.012 42.538 8.249 55 8.249 Z" style="fill: rgb(0,215,0);"></path>
		<ellipse style="stroke: rgb(0, 0, 0); fill: rgb(255, 255, 255); paint-order: fill; stroke-width: 0px;" cx="54.294" cy="55.376" rx="47.588" ry="48.886"></ellipse>
		<g transform="matrix(0.626024, 0, 0, 0.617811, -121.609901, -71.447632)" data-bx-origin="-0.333333 -0.333334">
			<polygon points="238.829 193.545 229.4 197.256 229.4 187.834 325.243 151.256 325.243 160.686 247.837 190.1 247.861 239.655 325.243 239.655 325.243 248.373 238.829 248.373" style="fill: rgb(0,215,0);"></polygon>
			<path d="M 259.001 224.03 C 262.423 224.03 265.204 221.249 265.204 217.827 C 265.204 214.389 262.423 211.608 259.001 211.608 C 255.563 211.608 252.774 214.389 252.774 217.827 C 252.775 221.248 255.564 224.03 259.001 224.03 Z" style="fill: rgb(0,215,0);"></path>
			<path d="M 325.196 234.116 L 325.173 225.569 C 325.15 222.858 322.876 220.983 320.22 220.663 L 272.15 215.78 C 272.056 215.78 271.955 215.733 271.884 215.733 C 270.196 215.733 268.829 217.1 268.829 218.78 L 268.829 228.014 L 255.353 228.014 C 253.673 228.014 252.306 229.373 252.306 231.061 C 252.306 232.772 253.673 234.116 255.353 234.116 L 325.196 234.116 Z" style="fill: rgb(0,215,0);"></path>
		</g>
	</g>
</svg>